<?xml version="1.0"?>
<svg xmlns="http://www.w3.org/2000/svg" height="512px" viewBox="-5 0 511 512" width="512px" class=""><g><path d="m168.3125 168c0-4.144531-3.355469-7.5-7.5-7.5h-85.980469c-4.140625 0-7.5 3.355469-7.5 7.5s3.359375 7.5 7.5 7.5h85.980469c4.144531 0 7.5-3.355469 7.5-7.5zm0 0" data-original="#000000" class="active-path" data-old_color="#000000" fill="#FFFFFF"/><path d="m136.148438 187.503906c-2.929688-2.929687-7.679688-2.929687-10.609376 0l-23.269531 23.269532c-2.144531 2.148437-2.789062 5.371093-1.625 8.175781 2.636719 6.371093 9.640625 4.21875 12.09375 4.628906l-13.238281 13.238281c-2.929688 2.929688-2.929688 7.679688 0 10.609375 2.929688 2.925781 7.675781 2.925781 10.605469 0l26.042969-26.042969c4.710937-4.710937 1.367187-12.804687-5.304688-12.804687h-5.164062l10.46875-10.46875c2.929687-2.929687 2.929687-7.675781 0-10.605469zm0 0" data-original="#000000" class="active-path" data-old_color="#000000" fill="#FFFFFF"/><path d="m425.867188 13.105469h-76.144532c-41.882812 0-75.960937 34.074219-75.960937 75.960937v346.96875c0 19.832032-16.132813 35.964844-35.960938 35.964844h-64.015625c-19.828125 0-35.960937-16.132812-35.960937-35.964844v-95.382812h7.007812c14.140625 0 25.648438-11.503906 25.648438-25.648438v-26.785156c19.480469-15.523438 32-39.429688 32-66.214844v-78.734375h7.910156c13.652344 0 24.757813-11.105469 24.757813-24.753906 0-13.652344-11.105469-24.757813-24.757813-24.757813h-22.976563v-69.324218c0-13.472656-10.960937-24.433594-24.433593-24.433594-13.472657 0-24.433594 10.960938-24.433594 24.433594v69.324218h-41.445313v-69.324218c0-13.472656-10.960937-24.433594-24.433593-24.433594-13.472657 0-24.433594 10.960938-24.433594 24.433594v69.324218h-22.980469c-13.648437 0-24.753906 11.105469-24.753906 24.753907 0 13.652343 11.105469 24.757812 24.753906 24.757812h7.910156v49.539063c0 4.140625 3.359376 7.5 7.5 7.5 4.144532 0 7.5-3.359375 7.5-7.5v-49.539063h139.316407v78.734375c0 32.679688-22.582031 59.882813-52.351563 67.476563-44.105468 11.320312-86.964844-22.207031-86.964844-67.476563v-3.949218c0-4.144532-3.355468-7.5-7.5-7.5-4.140624 0-7.5 3.355468-7.5 7.5.265626 1.148437-3.5 41.871093 32 70.164062v26.785156c0 14.144532 11.507813 25.648438 25.652344 25.648438h7.003906v95.382812c0 41.886719 34.078126 75.964844 75.964844 75.964844h64.011719c41.886719 0 75.964844-34.078125 75.964844-75.964844v-346.96875c0-19.828125 16.132812-35.960937 35.960937-35.960937h76.144532c19.828124 0 35.960937 16.132812 35.960937 35.960937v115.773438c0 4.144531 3.359375 7.5 7.5 7.5s7.5-3.355469 7.5-7.5v-115.773438c0-28.101562-22.863281-50.960937-50.960937-50.960937h-76.144532c-28.101562 0-50.960937 22.859375-50.960937 50.960937v346.96875c0 33.617188-27.351563 60.964844-60.964844 60.964844h-64.011719c-33.617187 0-60.964844-27.347656-60.964844-60.964844v-95.382812h10v95.382812c0 28.101563 22.863282 50.964844 50.964844 50.964844h64.011719c28.101563 0 50.964844-22.863281 50.964844-50.964844v-346.96875c0-33.613281 27.347656-60.960937 60.960937-60.960937h76.144532c33.613281 0 60.960937 27.347656 60.960937 60.960937v402.933594c0 2.757812-2.242187 5-5 5s-5-2.242188-5-5v-261.914062c0-4.140626-3.359375-7.5-7.5-7.5s-7.5 3.359374-7.5 7.5v261.914062c0 11.027344 8.972656 20 20 20s20-8.972656 20-20v-402.933594c0-41.882812-34.074219-75.960937-75.960937-75.960937zm-272.320313 11.328125c0-5.203125 4.230469-9.433594 9.433594-9.433594s9.433593 4.230469 9.433593 9.433594v69.324218h-18.867187zm-90.3125 0c0-5.203125 4.230469-9.433594 9.433594-9.433594 5.199219 0 9.433593 4.230469 9.433593 9.433594v69.324218h-18.867187zm-37.980469 103.835937c-5.378906 0-9.753906-4.378906-9.753906-9.757812 0-5.378907 4.375-9.753907 9.753906-9.753907h185.136719c5.378906 0 9.757813 4.375 9.757813 9.753907 0 5.378906-4.378907 9.757812-9.757813 9.757812-8.21875 0-171.664063 0-185.136719 0zm80.070313 197.382813h-14.507813c-5.871094 0-10.648437-4.777344-10.648437-10.648438v-17.167968c24.027343 11.988281 52.191406 11.535156 75.3125 0v17.167968c0 5.871094-4.777344 10.648438-10.648438 10.648438zm0 0" data-original="#000000" class="active-path" data-old_color="#000000" fill="#FFFFFF"/></g> </svg>
