<?xml version="1.0"?>
<svg xmlns="http://www.w3.org/2000/svg" id="Capa_1" enable-background="new 0 0 64 64" height="512px" viewBox="0 0 64 64" width="512px" class=""><g><path id="Shape" d="m3.193 48.5h2.448c.84 2.833 3.279 4.899 6.212 5.262s5.802-1.046 7.307-3.589c1.285 2.176 3.589 3.548 6.115 3.64s4.924-1.108 6.364-3.185h3.07c.932 1.829 2.755 3.035 4.803 3.177s4.02-.8 5.196-2.483c1.175 1.683 3.148 2.626 5.196 2.484s3.871-1.348 4.803-3.178h7.171c.782-.003 1.499-.434 1.868-1.123s.332-1.525-.098-2.177l-3.004-4.516c-.17-1.39-.936-2.637-2.098-3.417v-7.928c0-2.181-2.276-4.119-3.259-4.853-.457-1.76-1.89-3.097-3.678-3.429l2.624-10.228c.19-1.228-.165-2.477-.973-3.42-.808-.944-1.987-1.487-3.229-1.489h-6.376c-1.262-.001-2.459.558-3.268 1.526s-1.148 2.245-.925 3.487l2.605 10.131c-1.606.32-2.941 1.431-3.547 2.953h-1.445c-.453-1.275-1.658-2.127-3.011-2.129h-2.129c-1.353.002-2.559.854-3.013 2.129h-1.245v-6.583c1.465-.516 2.345-2.014 2.081-3.545-.263-1.531-1.592-2.649-3.146-2.646h-23.419c-1.554-.003-2.883 1.115-3.146 2.646s.616 3.029 2.081 3.545v19.834c-1.282.84-2.076 2.25-2.129 3.781v2.129c.001 1.764 1.431 3.194 3.194 3.194zm0-2.129c-.588 0-1.064-.477-1.064-1.064v-1.064h3.513c-.209.69-.317 1.408-.319 2.129h-2.13zm4.258 0c0-2.291 1.466-4.325 3.639-5.049s4.567.023 5.941 1.856h-4.258c-1.764 0-3.193 1.43-3.193 3.193s1.43 3.193 3.193 3.193h4.258c-1.375 1.833-3.768 2.58-5.941 1.856s-3.639-2.758-3.639-5.049zm5.323 1.064c-.588 0-1.064-.477-1.064-1.064s.477-1.064 1.064-1.064h12.774c.588 0 1.064.477 1.064 1.064s-.477 1.064-1.064 1.064zm8.516 2.129h4.258c1.764 0 3.193-1.43 3.193-3.193s-1.43-3.193-3.193-3.193h-4.258c1.375-1.833 3.768-2.58 5.941-1.856s3.639 2.758 3.639 5.049-1.466 4.325-3.639 5.049-4.567-.023-5.941-1.856zm11.39-1.064c1.086-3.6-.688-7.445-4.131-8.956-3.444-1.511-7.473-.213-9.388 3.024-1.285-2.176-3.589-3.548-6.115-3.64s-4.924 1.108-6.364 3.185h-4.252c.309-.487.735-.89 1.239-1.171.363-.181.591-.553.589-.958v-3.194h52.16v3.193c0 1.064 1.064.839 1.828 2.129-10.145 0-9.411-.036-9.694.084-1.554.256-2.939 1.126-3.843 2.415-1.525-2.165-4.313-3.036-6.799-2.126s-4.052 3.376-3.819 6.014h-1.411zm-28.422-28.742h2.129v10.645h-2.129zm17.032 0v10.645h-4.258v-10.645zm4.258 0v10.645h-2.129v-10.645zm30.87 14.903h-52.16v-2.129h52.16zm-41.515-4.258h-6.387v-10.645h6.387zm25.015 21.29c-2.058 0-3.726-1.668-3.726-3.726s1.668-3.726 3.726-3.726 3.726 1.668 3.726 3.726-1.668 3.726-3.726 3.726zm9.581 0c-2.058 0-3.726-1.668-3.726-3.726s1.668-3.726 3.726-3.726 3.726 1.668 3.726 3.726-1.669 3.726-3.726 3.726zm9.542-7.451 2.838 4.258h-6.552c.145-1.538-.329-3.07-1.316-4.258zm-15.386-34.064h6.376c1.176 0 2.129.953 2.129 2.129h-6.387c-.588 0-1.064.477-1.064 1.064 0 .588.477 1.064 1.064 1.064h5.888l-2.19 8.516h-5.268l-2.661-10.317c-.096-.616.083-1.243.489-1.716.407-.472 1-.743 1.624-.74zm-13.849 18.096c.588 0 1.064-.477 1.064-1.064-.001-.287.118-.562.327-.759.402-.412.716-.306 2.867-.306.588 0 1.064.477 1.064 1.064 0 .588.477 1.064 1.064 1.064h3.193c.588 0 1.064-.477 1.064-1.064 0-.018.037-1.754 3.008-2.129h6.758c2.845.36 3 1.967 3.007 2.129 0 .356.178.688.474.886.914.619 1.707 1.401 2.337 2.308h-28.356v-2.129zm-26.613-12.774h23.419c.588 0 1.064.477 1.064 1.064s-.477 1.064-1.064 1.064h-23.419c-.588 0-1.064-.477-1.064-1.064s.477-1.064 1.064-1.064z" data-original="#000000" class="active-path" data-old_color="#000000" fill="#FFFFFF"/><path d="m39.918 45.306c-1.47 0-2.661 1.191-2.661 2.661s1.191 2.661 2.661 2.661 2.661-1.191 2.661-2.661c.001-1.469-1.191-2.661-2.661-2.661zm0 3.194c-.294 0-.532-.238-.532-.532s.238-.532.532-.532.532.238.532.532c.001.293-.238.532-.532.532z" data-original="#000000" class="active-path" data-old_color="#000000" fill="#FFFFFF"/><path d="m49.499 45.306c-1.47 0-2.661 1.191-2.661 2.661s1.191 2.661 2.661 2.661 2.661-1.191 2.661-2.661c0-1.469-1.191-2.661-2.661-2.661zm0 3.194c-.294 0-.532-.238-.532-.532s.238-.532.532-.532.532.238.532.532c0 .293-.238.532-.532.532z" data-original="#000000" class="active-path" data-old_color="#000000" fill="#FFFFFF"/><path d="m6.387 53.822c-.588 0-1.064.477-1.064 1.064 0 .588.477 1.064 1.064 1.064h51.096c.588 0 1.064-.477 1.064-1.064 0-.588-.477-1.064-1.064-1.064z" data-original="#000000" class="active-path" data-old_color="#000000" fill="#FFFFFF"/><path d="m1.064 55.951h1.064c.588 0 1.064-.477 1.064-1.064 0-.588-.477-1.064-1.064-1.064h-1.064c-.587-.001-1.064.476-1.064 1.064 0 .587.477 1.064 1.064 1.064z" data-original="#000000" class="active-path" data-old_color="#000000" fill="#FFFFFF"/><path d="m62.805 53.822h-1.065c-.588 0-1.064.477-1.064 1.064 0 .588.477 1.064 1.064 1.064h1.064c.588 0 1.064-.477 1.064-1.064.001-.587-.475-1.064-1.063-1.064z" data-original="#000000" class="active-path" data-old_color="#000000" fill="#FFFFFF"/></g> </svg>
