<?xml version="1.0"?>
<svg xmlns="http://www.w3.org/2000/svg" id="Capa_1" enable-background="new 0 0 512 512" height="512px" viewBox="0 0 512 512" width="512px"><g><g><path d="m509.966 270.37-17.873-77.566c-3.318-14.404-15.96-24.465-30.743-24.465h-445.834c-8.556 0-15.516 6.96-15.516 15.515v128.258c0 8.556 6.96 15.516 15.516 15.516h92.789c5.426 9.562 15.695 16.032 27.453 16.032s22.027-6.47 27.453-16.032h193.594c5.426 9.562 15.695 16.032 27.453 16.032s22.027-6.47 27.453-16.032h84.773c8.556 0 15.516-6.96 15.516-15.516v-23.86c0-6.009-.684-12.025-2.034-17.882zm-374.208 58.291c-9.125 0-16.549-7.423-16.549-16.548s7.424-16.548 16.549-16.548 16.548 7.424 16.548 16.548c.001 9.125-7.423 16.548-16.548 16.548zm0-48.097c-17.396 0-31.549 14.152-31.549 31.548 0 .173.01.344.013.516h-88.706c-.285 0-.516-.231-.516-.516v-128.258c0-.284.231-.516.516-.516h445.835c7.754 0 14.385 5.277 16.125 12.833l.975 4.231h-390.791c-4.142 0-7.5 3.358-7.5 7.5s3.358 7.5 7.5 7.5h24.566v33.098h-64.645c-.285 0-.516-.231-.516-.516v-32.064c0-.285.231-.516.516-.516h8.016c4.142 0 7.5-3.358 7.5-7.5s-3.358-7.5-7.5-7.5h-8.016c-8.556 0-15.516 6.96-15.516 15.516v32.064c0 8.556 6.96 15.516 15.516 15.516h144.807v49.129h-25.094c.003-.172.013-.343.013-.516 0-17.396-14.153-31.549-31.549-31.549zm265.049-65.161v33.097h-57.146v-33.097zm15 0h17.064v97.226h-17.064zm32.064 0h17.064v97.226h-17.064zm-255.484 0v33.097h-65.162v-33.097zm15 0h17.064v97.226h-17.064zm32.065 0h17.064v97.226h-17.064zm32.064 97.226v-97.226h57.145v33.097h-32.578c-4.142 0-7.5 3.358-7.5 7.5s3.358 7.5 7.5 7.5h104.723v21.768c-4.814-2.979-10.483-4.703-16.548-4.703-17.396 0-31.549 14.152-31.549 31.548 0 .173.01.344.013.516zm112.742 16.032c-9.125 0-16.549-7.423-16.549-16.548s7.424-16.548 16.549-16.548 16.548 7.424 16.548 16.548c.001 9.125-7.423 16.548-16.548 16.548zm112.742-16.548c0 .285-.231.516-.516.516h-16.548v-97.226h1.972l13.441 58.334c1.096 4.754 1.651 9.637 1.651 14.515z" data-original="#000000" class="active-path" data-old_color="#000000" fill="#FFFFFF"/></g></g> </svg>
